# xmcd
#
# Track frame offsets:
#	150
#	16376
#	26233
#	39574
#	50216
#	62150
#	75169
#	86779
#	101501
#	113879
#	124718
#	146647
#	162514
#	174888
#	187265
#	197613
#	210757
#	224187
#	236762
#	254885
#	267392
#
# Disc length: 3776 seconds
#
# Revision: 0
# Processed by: cddbd v1.4PL0 Copyright (c) Steve Scherf et al.
# Submitted via: MusicWizard 6.0.0
#
DISCID=3e0ebe15
DTITLE=Waylon Jennings - A Man Called Hoss and Wil The Wolf Survive
DYEAR=2002
DGENRE=Country
TTITLE0=Prologue
TTITLE1=Chapter One... Childhood - LITTLEFIELD
TTITLE2=Chapter Two... Texas - YOU'LL NEVER TAKE TEXAS OUT OF ME
TTITLE3=Chapter Three...First Love - YOU WENT OUT WITH ROCK'n'ROLL
TTITLE4=Chapter Four...Lost Love - A LOVE SONG I CAN'T SING ANYMORE
TTITLE5=Chapter Five...Nashville - IF OLE HANK COULD ONLY SEE US NOW
TTITLE6=Chapter Six...Crazies - ROUGH AND ROWDY DAYS
TTITLE7=Chapter Seven...Drugs - I'M LIVING PROOF THERE'S LIFE AFTER YOU
TTITLE8=Chapter Eight...Jessi - YOU DESERVE THE STARS IN MY CROWN
TTITLE9=Chapter Nine...Reflections - TURN IT ALL AROUND
TTITLE10=Chapter Ten...The Beginning - WHERE DO WE GO FROM HERE
TTITLE11=Will The Wolf Survive
TTITLE12=They Ain't Got 'em All
TTITLE13=Working Without A Net
TTITLE14=Where Does Love Go
TTITLE15=That Dog Won't Hunt
TTITLE16=What You'll Do When I'm Gone
TTITLE17=Suddenly Single
TTITLE18=The Shawdow Of Your Distant Friend
TTITLE19=I've Got Me A Woman
TTITLE20=The Devil's Right Hand
EXTD=YEAR: 2002
EXTT0=
EXTT1=
EXTT2=
EXTT3=
EXTT4=
EXTT5=
EXTT6=
EXTT7=
EXTT8=
EXTT9=
EXTT10=
EXTT11=
EXTT12=
EXTT13=
EXTT14=
EXTT15=
EXTT16=
EXTT17=
EXTT18=
EXTT19=
EXTT20=
PLAYORDER=
